# xmcd
#
# Track frame offsets: 
#        150
#        13875
#        26033
#        42109
#        55439
#        66973
#        78104
#        90494
#        101125
#        118473
#        131184
#        143547
#        156392
#        170158
#        182144
#        191569
#        204909
#        216226
#        230533
#        245479
#        258751
#        271004
#        290741
#
# Disc length: 4042 seconds
#
# Revision: 0
# Processed by: cddbd v1.5.2PL0 Copyright (c) Steve Scherf et al.
# Submitted via: ExactAudioCopy v1.1
#
DISCID=5a0fc817
DTITLE=Various Artist - All-Time Country Favourites - Greatest Hits D
DTITLE=isc 1
DYEAR=2010
DGENRE=Country
TTITLE0=Lynn Anderson - Rose garden
TTITLE1=Charlie Rich - The most beautiful girl
TTITLE2=Billie Jo Spears - Blanket on the ground
TTITLE3=Glen Campbell - Blue eyes cryin' in the rain
TTITLE4=Sammi Smith - Help me make it through the night
TTITLE5=Conway Twitty - Hello darlin'
TTITLE6=Patsy Cline - Crazy
TTITLE7=Jim Reeves - He'll have to go
TTITLE8=Ray Price - For the good times
TTITLE9=Hank Snow - The Rhumba boogie
TTITLE10=Bill Monroe and his bluegrass boys - Kentucky waltz
TTITLE11=Hank Williams - I'm so lonely I could cry
TTITLE12=Porter Wagonner - Skid row Joe
TTITLE13=Ernest Tubb - Waltz across Texas
TTITLE14=Jack Greene - Love takes care of me
TTITLE15=Sonny James - Endlessly
TTITLE16=Don Gibson - Oh lonesome me
TTITLE17=Lefty Frizzell - The long black veil
TTITLE18=Waylon Jennings - Luckenbach, Texas ( back to the basics of l
TTITLE18=ove )
TTITLE19=Dolly Parton - Here you come again
TTITLE20=Tammy Wynette - Stand by your man
TTITLE21=Willie Nelson - Georgia on my mind
TTITLE22=Johnny Cash - Folsom prison blues
EXTD=
EXTT0=
EXTT1=
EXTT2=
EXTT3=
EXTT4=
EXTT5=
EXTT6=
EXTT7=
EXTT8=
EXTT9=
EXTT10=
EXTT11=
EXTT12=
EXTT13=
EXTT14=
EXTT15=
EXTT16=
EXTT17=
EXTT18=
EXTT19=
EXTT20=
EXTT21=
EXTT22=
PLAYORDER=
